<?xml version="1.0" encoding="UTF-8"?>
<svg id="Layer_2" data-name="Layer 2" xmlns="http://www.w3.org/2000/svg" viewBox="0 0 281.8 87.2">
  <defs>
    <style>
      .cls-1 {
        fill: #005cb9;
      }

      .cls-2 {
        fill: #636569;
      }
    </style>
  </defs>
  <g id="Layer_1-2" data-name="Layer 1">
    <g>
      <g>
        <path class="cls-1" d="m68.2,11.4c-11.5,1.7-21.8-.5-31.9-5.9-10,5.4-20.4,7.6-31.9,5.9,0,7.5.1,14.8,0,22-.2,16.4,6.8,29.1,19.7,38.8,3.7,2.8,7.9,4.9,12.2,7.6,4.3-2.7,8.5-4.8,12.2-7.6,12.9-9.7,19.9-22.5,19.7-38.9-.1-7.3,0-14.4,0-21.9Zm-23.7,59.2h-16.2L8,16.1h16.3l8.9,27.6c2.3,6.8,3,10.4,3.1,10.4h.1c.1,0,.9-3.7,3.1-10.4l8.9-27.6h16.3l-20.2,54.5Z"/>
        <path class="cls-2" d="m72.8,16.5V6.3l-2.5.4c-2.6.4-5.2.6-7.7.6-8.5,0-16.8-2.2-25.2-6.7l-1-.6-1,.6c-8.4,4.5-16.6,6.7-25.2,6.7-2.5,0-5.1-.2-7.7-.6L0,6.3v26.2c-.2,17.7,7.2,32.4,22,43.5,2.8,2.1,5.8,3.8,8.9,5.7,1.4.8,2.9,1.7,4.4,2.6l1.2.7,1.2-.7c1.5-.9,2.9-1.8,4.4-2.6,3.1-1.8,6.1-3.6,8.9-5.7,14.8-11.1,22.2-25.8,22-43.5-.2-5.3-.2-10.5-.2-16Zm-23.3,57.8c-4,3-8.5,5.3-13.1,8.2-4.7-2.9-9.1-5.2-13.1-8.2C9.4,63.9,1.9,50.1,2.1,32.5c.1-7.8,0-15.5,0-23.6,2.7.4,5.4.6,8,.6,9.2,0,17.8-2.4,26.2-6.9,8.4,4.5,17,6.9,26.2,6.9,2.6,0,5.3-.2,8-.6,0,8.1-.1,15.9,0,23.6.3,17.7-7.2,31.4-21,41.8Z"/>
      </g>
      <path class="cls-1" d="m106.4,63.6h-19.7l-2.4,7h-16.1l21.3-54.5h14.3l21.3,54.5h-16.3l-2.4-7Zm-4.4-13l-2.7-7.9c-1.2-3.2-2.6-8.5-2.6-8.4h-.1c-.1-.1-1.5,5.2-2.6,8.4l-2.7,7.9s10.7,0,10.7,0Z"/>
      <path class="cls-1" d="m168.4,56.7v13.9h-39.7V16.2h15v40.6h24.7v-.1Z"/>
      <path class="cls-1" d="m265,70.6l-9.5-17.1h-4.9v17.1h-15V16.2h21.4c14,0,22.4,7.7,22.4,19.1,0,7.2-3.4,12.7-9.4,15.7l11.8,19.7h-16.8v-.1Zm-14.4-30.3h8.5c3.5,0,4.7-3,4.7-5.1,0-1.9-1-5.1-4.7-5.1h-8.5v10.2Z"/>
      <g>
        <path class="cls-2" d="m203.4,49.2c.1-.1.1-.2.2-.2,2.5-3.4,5-6.9,7.6-10.3h0c.4-.6.3-1-.2-1.4-.1-.1-.3-.2-.4-.3-2-1.5-4-2.9-5.9-4.3-.5-.4-1-.3-1.4.2-2.5,3.4-5,6.9-7.6,10.3-.1.2-.2.3-.3.5-.1.4,0,.8.4.9h.2c.7-.5,1.3-1,2-1.4.9-.7,1.8-1.3,2.7-2,.1-.1.2-.1.3-.1.7.3,1.3.7,1.7,1.3.6,1,.5,2,.2,3-.4,1.1-1.1,2.1-1.9,2.9,0,0,0,.1-.1.1.5.4,1,.8,1.5,1.1.2.1.7,0,1-.3Z"/>
        <path class="cls-1" d="m201,52.4c.1-.3.2-.5.2-.8,0-.4,0-.7-.1-1.1,0-.1-.1-.2-.1-.3-.3.6-.6,1.1-1,1.6-.4.6-.9,1.2-1.3,1.8-.6.8-1.4,1.1-2.4,1.2h-2.1c0,.2-.1.4-.2.6-.1.4-.2.9-.3,1.3.7,0,1.4.1,2.1.1h2c.3,0,.6-.1.8-.4l.1-.1c.5-.8,1.1-1.6,1.6-2.4.2-.5.5-1,.7-1.5Z"/>
        <path class="cls-1" d="m197.7,52.7c.7-1,1.3-1.9,2-2.9.1-.1.1-.2.2-.3v-.2h-.2c-.4.3-.8.6-1.3.9-.7.4-1.5.9-2.2,1.2-.8.4-1.1,1.1-1.4,1.9.9,0,1.7.1,2.5-.2.1.1.2-.2.4-.4Z"/>
        <path class="cls-1" d="m192.7,62.2c.4-.4.6-.9.7-1.5-.1,0-.2-.1-.3-.1s-.3-.1-.4-.1c-.2-.1-.3,0-.4.1h0c-.2.3-.4.6-.6.9-.4-.3-.7-.6-1-.9h0c.2-.4.5-.7.7-1.1.6-1,.9-2.2,1.2-3.3.1-.5.3-1,.4-1.5.2-.7.4-1.3.6-2,.4-1.1,1.1-2,2.2-2.5.3-.1.6-.3.9-.5,1.5-.7,2.8-1.7,3.8-2.9.6-.7,1.1-1.5,1.3-2.4.1-.5.1-1-.3-1.4-.3-.4-.5-.4-.8-.1-.9.7-1.8,1.3-2.7,2-2.8,2.1-5.7,4.1-8.5,6.2-.2.1-.3.2-.5.3-.1.1-.2.1-.3.2-.3-.4-.5-.7-.8-1.1.3-.2.6-.4.9-.6,2-1.4,4-2.9,6-4.3-.6-.6-.7-1.3-.7-2.1-.6.1-1.2.3-1.8.4-.8.2-1.6.4-2.4.7-.4.2-.9.5-1.2.8s-.6.7-.9,1.1c-.5.7-1,1.5-1.4,2.2-.8,1.5-1.5,3-2.1,4.6-.2.6-.5,1.1-.7,1.7-1,2.3-1.9,4.7-2.9,7-.1.3-.3.6-.4.9,1.4,1.4,3,2.7,4.7,3.8.4-.2.8-.4,1.2-.6,1.2-.5,2.4-1,3.5-1.6,1-.7,2.1-1.3,3-2.3Z"/>
        <path class="cls-1" d="m221.8,27.2c.7,1.4,1.3,3,1.5,4.7.1.6-.3,1.2-1,1.3-.3,0-.6,0-.9-.2-.2-.2-.4-.4-.5-.8-1-6.8-7.4-11.6-14.3-10.5-.6.1-1.2-.3-1.3-1-.1-.6.3-1.2,1-1.3,3-.5,6,.1,8.6,1.3-4.4-2.9-9.7-4.6-15.5-4.6-15.1,0-27.2,11.4-27.2,27.3,0,7.3,2.5,13.6,6.7,18.3.4-1,.9-2,1.3-3,1.1-2.6,2.1-5.1,3.2-7.7.2-.4.4-.9.6-1.3.7-1.4,1.4-2.8,2.3-4.1.3-.4.6-.8,1-1.2v-1.1c0-7.8,4.6-13,12.2-13,1.6,0,3,.2,4.3.6.5,0,1,.1,1.5.5.2.1.4.3.5.4.7.5,1.4,1,2.1,1.6,1.3.9,2.5,1.9,3.8,2.8,1.1.8,1.3,2.1.5,3.2-.3.4-.5.7-.8,1.1.2.9.2,1.9.2,2.9,0,7.5-4.2,12.6-11.4,13v.1c0,.3.1.6.2.9.2.9-.1,1.6-.9,2.1-.3.2-.7.4-1.1.6s-.8.3-1.2.5c-.8.3-1.7.5-2.6.4-.3.6-.5,1.1-.8,1.6-.7,1.1-1.7,1.9-2.9,2.5-1.6.8-3.3,1.6-5,2.3,3.9,2.1,8.5,3.3,13.3,3.3,15.1,0,27.3-11.4,27.3-27.3.3-6.2-1.5-11.7-4.7-16.2Zm-9.2,7.1c-.2-.2-.4-.4-.5-.8-.3-2-2.1-3.3-4.1-3-.6.1-1.2-.3-1.3-1-.1-.6.3-1.2,1-1.3,3.2-.5,6.2,1.7,6.7,5,.1.6-.3,1.2-1,1.3-.2.1-.5,0-.8-.2Zm5.3-.4c-.3,0-.6,0-.9-.2-.2-.2-.4-.4-.5-.8-.3-1.7-1-3.1-2.1-4.3s-2.6-2.1-4.3-2.4c-.9-.2-1.8-.2-2.7-.1-.6.1-1.2-.3-1.3-1-.1-.6.3-1.2,1-1.3,5.6-.8,10.9,3.1,11.8,8.7.1.7-.4,1.3-1,1.4Z"/>
        <path class="cls-1" d="m196.8,58.2c-1.1,0-2.2-.1-3.4-.1-.1.3-.2.7-.4,1.1.7.2,1.5.4,2.2.5.3.1.7-.1,1-.1.9-.2,1.8-.6,2.6-1.1.4-.2.4-.4.4-.7-.7.4-1.6.4-2.4.4Z"/>
      </g>
      <g>
        <path class="cls-2" d="m72.3,73.4c3.3,0,5.3,1.6,5.3,4.3s-2,4.3-5.3,4.3h-2.4v4.9h-1.7v-13.5h4.1Zm0,7.2c2.3,0,3.5-1.1,3.5-2.9,0-1.9-1.4-2.8-3.5-2.8h-2.4v5.7c0-.1,2.4-.1,2.4,0Z"/>
        <path class="cls-2" d="m108.6,83.4h-6.8l-1.5,3.5h-1.8l5.9-13.5h1.7l5.9,13.5h-1.8l-1.6-3.5Zm-.6-1.3l-2.2-5.1c-.3-.8-.6-1.7-.6-1.6h0s-.3.8-.6,1.6l-2.2,5.1h5.6Z"/>
        <path class="cls-2" d="m144.1,73.4l-5.3,7.1v6.5h-1.7v-6.5l-5.3-7.1h1.9l3.4,4.4c.4.6.8,1.2.9,1.2h0s.5-.6.9-1.2l3.4-4.4h1.8Z"/>
        <path class="cls-2" d="m177.9,73.4v1.5h-4.6v12.1h-1.7v-12.2h-4.6v-1.5l10.9.1h0Z"/>
        <path class="cls-2" d="m211,85.4v1.5h-9.2v-13.5h9.1v1.5h-7.4v4.2h5.8v1.4h-5.8v5l7.5-.1h0Z"/>
        <path class="cls-2" d="m245.3,77.1c-.9-1.6-2.5-2.4-4.4-2.4-3,0-5.2,2.1-5.2,5.5s2.2,5.5,5.2,5.5c2.1,0,3.8-1,4.6-2.8l1.7.4c-1.1,2.5-3.4,3.9-6.3,3.9-4,0-6.9-2.8-6.9-7s3-7,6.9-7c2.8,0,5,1.3,6.1,3.5l-1.7.4Z"/>
        <path class="cls-2" d="m281.8,73.4v13.5h-1.7v-6.3h-7.3v6.3h-1.7v-13.5h1.7v5.8h7.3v-5.8h1.7Z"/>
      </g>
    </g>
  </g>
</svg>